<svg xmlns="http://www.w3.org/2000/svg" xmlns:xlink="http://www.w3.org/1999/xlink" viewBox="0 0 512 512"><defs><linearGradient id="dust-day_a" x1="6" x2="18" y1="169.6" y2="190.4" gradientUnits="userSpaceOnUse"><stop offset="0" stop-color="#fde68a"/><stop offset=".5" stop-color="#fde68a"/><stop offset="1" stop-color="#fde171"/></linearGradient><linearGradient xlink:href="#dust-day_a" id="dust-day_b" x1="66" x2="78" y1="169.6" y2="190.4"/><linearGradient xlink:href="#dust-day_a" id="dust-day_c" x1="38" x2="50" y1="137.6" y2="158.4"/><linearGradient xlink:href="#dust-day_a" id="dust-day_d" x1="98" x2="110" y1="137.6" y2="158.4"/><linearGradient xlink:href="#dust-day_a" id="dust-day_e" x1="70" x2="82" y1="101.6" y2="122.4"/><linearGradient xlink:href="#dust-day_a" id="dust-day_f" x1="130" x2="142" y1="101.6" y2="122.4"/><linearGradient xlink:href="#dust-day_a" id="dust-day_g" x1="102" x2="114" y1="69.6" y2="90.4"/><linearGradient xlink:href="#dust-day_a" id="dust-day_h" x1="162" x2="174" y1="69.6" y2="90.4"/><linearGradient xlink:href="#dust-day_a" id="dust-day_i" x1="134" x2="146" y1="33.6" y2="54.4"/><linearGradient xlink:href="#dust-day_a" id="dust-day_j" x1="194" x2="206" y1="33.6" y2="54.4"/><linearGradient xlink:href="#dust-day_a" id="dust-day_k" x1="166" x2="178" y1="1.6" y2="22.4"/><linearGradient xlink:href="#dust-day_a" id="dust-day_l" x1="226" x2="238" y1="1.6" y2="22.4"/><symbol id="dust-day_n" viewBox="0 0 375 375"><circle cx="187.5" cy="187.5" r="84" fill="none" stroke="#fbbf24" stroke-miterlimit="10" stroke-width="15"/><path fill="none" stroke="#fbbf24" stroke-linecap="round" stroke-miterlimit="10" stroke-width="15" d="M187.5 57.2V7.5m0 360v-49.7m92.2-222.5 35-35M60.3 314.7l35.1-35.1m0-184.4-35-35m254.5 254.5-35.1-35.1M57.2 187.5H7.5m360 0h-49.7"/></symbol><symbol id="dust-day_o" viewBox="0 0 244 192"><circle cx="12" cy="180" r="12" fill="url(#dust-day_a)"/><circle cx="72" cy="180" r="12" fill="url(#dust-day_b)"/><circle cx="44" cy="148" r="12" fill="url(#dust-day_c)"/><circle cx="104" cy="148" r="12" fill="url(#dust-day_d)"/><circle cx="76" cy="112" r="12" fill="url(#dust-day_e)"/><circle cx="136" cy="112" r="12" fill="url(#dust-day_f)"/><circle cx="108" cy="80" r="12" fill="url(#dust-day_g)"/><circle cx="168" cy="80" r="12" fill="url(#dust-day_h)"/><circle cx="140" cy="44" r="12" fill="url(#dust-day_i)"/><circle cx="200" cy="44" r="12" fill="url(#dust-day_j)"/><circle cx="172" cy="12" r="12" fill="url(#dust-day_k)"/><circle cx="232" cy="12" r="12" fill="url(#dust-day_l)"/></symbol><clipPath id="dust-day_m"><path fill="none" d="M0 0h512L0 512V0z"/></clipPath></defs><g clip-path="url(#dust-day_m)"><use xlink:href="#dust-day_n" width="375" height="375" transform="translate(68.5 68.5)"/></g><use xlink:href="#dust-day_o" width="244" height="192" transform="translate(192 182)"/></svg>