<svg xmlns="http://www.w3.org/2000/svg" xmlns:xlink="http://www.w3.org/1999/xlink" viewBox="0 0 512 512"><defs><linearGradient id="dust-night_a" x1="6" x2="18" y1="169.6" y2="190.4" gradientUnits="userSpaceOnUse"><stop offset="0" stop-color="#fde68a"/><stop offset=".5" stop-color="#fde68a"/><stop offset="1" stop-color="#fde171"/></linearGradient><linearGradient xlink:href="#dust-night_a" id="dust-night_b" x1="66" x2="78" y1="169.6" y2="190.4"/><linearGradient xlink:href="#dust-night_a" id="dust-night_c" x1="38" x2="50" y1="137.6" y2="158.4"/><linearGradient xlink:href="#dust-night_a" id="dust-night_d" x1="98" x2="110" y1="137.6" y2="158.4"/><linearGradient xlink:href="#dust-night_a" id="dust-night_e" x1="70" x2="82" y1="101.6" y2="122.4"/><linearGradient xlink:href="#dust-night_a" id="dust-night_f" x1="130" x2="142" y1="101.6" y2="122.4"/><linearGradient xlink:href="#dust-night_a" id="dust-night_g" x1="102" x2="114" y1="69.6" y2="90.4"/><linearGradient xlink:href="#dust-night_a" id="dust-night_h" x1="162" x2="174" y1="69.6" y2="90.4"/><linearGradient xlink:href="#dust-night_a" id="dust-night_i" x1="134" x2="146" y1="33.6" y2="54.4"/><linearGradient xlink:href="#dust-night_a" id="dust-night_j" x1="194" x2="206" y1="33.6" y2="54.4"/><linearGradient xlink:href="#dust-night_a" id="dust-night_k" x1="166" x2="178" y1="1.6" y2="22.4"/><linearGradient xlink:href="#dust-night_a" id="dust-night_l" x1="226" x2="238" y1="1.6" y2="22.4"/><symbol id="dust-night_n" viewBox="0 0 279 279"><path fill="none" stroke="#72b9d5" stroke-linecap="round" stroke-linejoin="round" stroke-width="15" d="M256.8 173.1A133.3 133.3 0 01122.4 40.7 130.5 130.5 0 01127 7.5 133 133 0 007.5 139.1c0 73.1 60 132.4 134.2 132.4 62.5 0 114.8-42.2 129.8-99.2a135.6 135.6 0 01-14.8.8Z"/></symbol><symbol id="dust-night_o" viewBox="0 0 244 192"><circle cx="12" cy="180" r="12" fill="url(#dust-night_a)"/><circle cx="72" cy="180" r="12" fill="url(#dust-night_b)"/><circle cx="44" cy="148" r="12" fill="url(#dust-night_c)"/><circle cx="104" cy="148" r="12" fill="url(#dust-night_d)"/><circle cx="76" cy="112" r="12" fill="url(#dust-night_e)"/><circle cx="136" cy="112" r="12" fill="url(#dust-night_f)"/><circle cx="108" cy="80" r="12" fill="url(#dust-night_g)"/><circle cx="168" cy="80" r="12" fill="url(#dust-night_h)"/><circle cx="140" cy="44" r="12" fill="url(#dust-night_i)"/><circle cx="200" cy="44" r="12" fill="url(#dust-night_j)"/><circle cx="172" cy="12" r="12" fill="url(#dust-night_k)"/><circle cx="232" cy="12" r="12" fill="url(#dust-night_l)"/></symbol><clipPath id="dust-night_m"><path fill="none" d="M0 0h512L0 512V0z"/></clipPath></defs><g clip-path="url(#dust-night_m)"><use xlink:href="#dust-night_n" width="279" height="279" transform="translate(116.5 116.5)"/></g><use xlink:href="#dust-night_o" width="244" height="192" transform="translate(192 182)"/></svg>