<svg xmlns="http://www.w3.org/2000/svg" xmlns:xlink="http://www.w3.org/1999/xlink" viewBox="0 0 512 512"><defs><linearGradient id="dust_a" x1="6" x2="18" y1="169.6" y2="190.4" gradientUnits="userSpaceOnUse"><stop offset="0" stop-color="#fde68a"/><stop offset=".5" stop-color="#fde68a"/><stop offset="1" stop-color="#fde171"/></linearGradient><linearGradient xlink:href="#dust_a" id="dust_b" x1="66" x2="78" y1="169.6" y2="190.4"/><linearGradient xlink:href="#dust_a" id="dust_c" x1="38" x2="50" y1="137.6" y2="158.4"/><linearGradient xlink:href="#dust_a" id="dust_d" x1="98" x2="110" y1="137.6" y2="158.4"/><linearGradient xlink:href="#dust_a" id="dust_e" x1="70" x2="82" y1="101.6" y2="122.4"/><linearGradient xlink:href="#dust_a" id="dust_f" x1="130" x2="142" y1="101.6" y2="122.4"/><linearGradient xlink:href="#dust_a" id="dust_g" x1="102" x2="114" y1="69.6" y2="90.4"/><linearGradient xlink:href="#dust_a" id="dust_h" x1="162" x2="174" y1="69.6" y2="90.4"/><linearGradient xlink:href="#dust_a" id="dust_i" x1="134" x2="146" y1="33.6" y2="54.4"/><linearGradient xlink:href="#dust_a" id="dust_j" x1="194" x2="206" y1="33.6" y2="54.4"/><linearGradient xlink:href="#dust_a" id="dust_k" x1="166" x2="178" y1="1.6" y2="22.4"/><linearGradient xlink:href="#dust_a" id="dust_l" x1="226" x2="238" y1="1.6" y2="22.4"/><symbol id="dust_n" viewBox="0 0 359 231"><path fill="none" stroke="#e2e8f0" stroke-linecap="round" stroke-linejoin="round" stroke-width="15" d="M295.5 223.5a56 56 0 000-112l-2.5.1a83.9 83.9 0 00-153-64.2 56 56 0 00-84.6 48.1 56.6 56.6 0 00.8 9 60 60 0 0011.2 119"/></symbol><symbol id="dust_o" viewBox="0 0 244 192"><circle cx="12" cy="180" r="12" fill="url(#dust_a)"/><circle cx="72" cy="180" r="12" fill="url(#dust_b)"/><circle cx="44" cy="148" r="12" fill="url(#dust_c)"/><circle cx="104" cy="148" r="12" fill="url(#dust_d)"/><circle cx="76" cy="112" r="12" fill="url(#dust_e)"/><circle cx="136" cy="112" r="12" fill="url(#dust_f)"/><circle cx="108" cy="80" r="12" fill="url(#dust_g)"/><circle cx="168" cy="80" r="12" fill="url(#dust_h)"/><circle cx="140" cy="44" r="12" fill="url(#dust_i)"/><circle cx="200" cy="44" r="12" fill="url(#dust_j)"/><circle cx="172" cy="12" r="12" fill="url(#dust_k)"/><circle cx="232" cy="12" r="12" fill="url(#dust_l)"/></symbol><clipPath id="dust_m"><path fill="none" d="M0 0h512L0 512V0z"/></clipPath></defs><g clip-path="url(#dust_m)"><use xlink:href="#dust_n" width="359" height="231" transform="translate(80.5 140.5)"/></g><use xlink:href="#dust_o" width="244" height="192" transform="translate(192 182)"/></svg>