<svg xmlns="http://www.w3.org/2000/svg" xmlns:xlink="http://www.w3.org/1999/xlink" viewBox="0 0 512 512"><defs><symbol id="extreme-smoke_a" viewBox="0 0 214.3 140.1"><path fill="none" stroke="currentColor" stroke-linejoin="round" stroke-width="15" d="M7.5 100.2a32.4 32.4 0 0032.4 32.4h129.8v-.1l2.3.1a34.8 34.8 0 006.5-68.9A32.4 32.4 0 00130 30.6a48.6 48.6 0 00-88.6 37.2h-1.5a32.4 32.4 0 00-32.4 32.4Z"/></symbol><symbol id="extreme-smoke_b" viewBox="0 0 359 231"><path fill="none" stroke="currentColor" stroke-linecap="round" stroke-linejoin="round" stroke-width="15" d="M295.5 223.5a56 56 0 100-112l-2.5.1a84 84 0 00-153-64.2 56 56 0 00-83.8 57.2 60 60 0 0011.2 118.9"/></symbol><symbol id="extreme-smoke_c" viewBox="0 0 437 362.5"><g><use xlink:href="#extreme-smoke_b" width="359" height="231" transform="translate(0 131.5)"/><g clip-path="url(#extreme-smoke_d)"><use xlink:href="#extreme-smoke_a" width="214.3" height="140.1" transform="translate(195.51 156.01)"/></g></g></symbol><symbol id="extreme-smoke_e" viewBox="0 0 173 217"><g><circle cx="88.5" cy="188.5" r="24" fill="none" stroke="currentColor" stroke-miterlimit="10" stroke-width="9"/><circle cx="40.5" cy="124.5" r="36" fill="none" stroke="currentColor" stroke-miterlimit="10" stroke-width="9"/><circle cx="120.5" cy="52.5" r="48" fill="none" stroke="currentColor" stroke-miterlimit="10" stroke-width="9"/></g></symbol><clipPath id="extreme-smoke_d"><path fill="none" d="M369.5 299c0-34.6-24-63.8-56-71.8V223c0-56.2-45.8-102-102-102V0H437v299h-67.5Z"/></clipPath><style>.ih,.ii,.ij,.ik{fill:none;}.ii,.ij{stroke-linejoin:round;stroke-width:15px;}.ii,.ij,.ik{stroke:currentColor;}.il{clip-path:url(#extreme-smoke_d);}.ij{stroke-linecap:round;}.ik{stroke-miterlimit:10;stroke-width:9px;}</style></defs><g id="extreme-smoke_ci"><use xlink:href="#extreme-smoke_c" width="437" height="362.5" transform="translate(64.34 9)"/><use xlink:href="#extreme-smoke_e" width="173" height="217" transform="translate(169.5 229.5)"/></g></svg>