<svg xmlns="http://www.w3.org/2000/svg" xmlns:xlink="http://www.w3.org/1999/xlink" viewBox="0 0 512 512"><defs><symbol id="partly-cloudy-day-smoke_a" viewBox="0 0 359 231"><path fill="none" stroke="currentColor" stroke-linecap="round" stroke-linejoin="round" stroke-width="15" d="M295.5 223.5a56 56 0 100-112l-2.5.1a84 84 0 00-153-64.2 56 56 0 00-83.8 57.2 60 60 0 0011.2 118.9"/></symbol><symbol id="partly-cloudy-day-smoke_b" viewBox="0 0 426.5 362.5"><g><g clip-path="url(#partly-cloudy-day-smoke_c)"><use xlink:href="#partly-cloudy-day-smoke_e" width="199" height="199" transform="translate(37.5 78.5)"/></g><use xlink:href="#partly-cloudy-day-smoke_a" width="359" height="231" transform="translate(67.5 131.5)"/></g></symbol><symbol id="partly-cloudy-day-smoke_d" viewBox="0 0 173 217"><g><circle cx="88.5" cy="188.5" r="24" fill="none" stroke="currentColor" stroke-miterlimit="10" stroke-width="9"/><circle cx="40.5" cy="124.5" r="36" fill="none" stroke="currentColor" stroke-miterlimit="10" stroke-width="9"/><circle cx="120.5" cy="52.5" r="48" fill="none" stroke="currentColor" stroke-miterlimit="10" stroke-width="9"/></g></symbol><symbol id="partly-cloudy-day-smoke_e" viewBox="0 0 199 199"><g><circle cx="99.5" cy="99.5" r="40" fill="none" stroke="currentColor" stroke-miterlimit="10" stroke-width="15"/><path fill="none" stroke="currentColor" stroke-linecap="round" stroke-miterlimit="10" stroke-width="15" d="M99.5 32.9V7.5m0 184v-25.4m47.1-113.7 18-18M34.4 164.6l18-18m0-94.2-18-18m130.2 130.2-18-18M7.5 99.5h25.4m158.6 0h-25.4"/></g></symbol><clipPath id="partly-cloudy-day-smoke_c"><path fill="none" d="M0 0v286h54.5a81.1 81.1 0 0147.7-65 77.1 77.1 0 0198.5-67.9 103.9 103.9 0 0169.3-34.7V0H0Z"/></clipPath><style>.ih,.ii,.ij,.ik,.il{fill:none;}.ii,.ij,.ik{stroke-width:15px;}.ii,.ij,.ik,.il{stroke:currentColor;}.ii,.ij,.il{stroke-miterlimit:10;}.ii,.ik{stroke-linecap:round;}.im{clip-path:url(#partly-cloudy-day-smoke_c);}.ik{stroke-linejoin:round;}.il{stroke-width:9px;}</style></defs><g id="partly-cloudy-day-smoke_ah"><use xlink:href="#partly-cloudy-day-smoke_b" width="426.5" height="362.5" transform="translate(9 9)"/><use xlink:href="#partly-cloudy-day-smoke_d" width="173" height="217" transform="translate(169.5 229.5)"/></g></svg>