<svg xmlns="http://www.w3.org/2000/svg" xmlns:xlink="http://www.w3.org/1999/xlink" viewBox="0 0 512 512"><defs><symbol id="thunderstorms-rain_a" viewBox="0 0 359 231"><path fill="none" stroke="currentColor" stroke-linecap="round" stroke-linejoin="round" stroke-width="15" d="M295.5 223.5a56 56 0 100-112l-2.5.1a84 84 0 00-153-64.2 56 56 0 00-83.8 57.2 60 60 0 0011.2 118.9"/></symbol><symbol id="thunderstorms-rain_b" viewBox="0 0 96 176"><path d="M32 0 0 96h32l-16 80L96 64H48L80 0H32z"/></symbol><symbol id="thunderstorms-rain_c" viewBox="0 0 128 109"><g><path d="M8 56a8 8 0 01-8-8V8a8 8 0 1116 0v40a8 8 0 01-8 8Zm56 53a8 8 0 01-8-8V61a8 8 0 1116 0v40a8 8 0 01-8 8Zm56-35a8 8 0 01-8-8V26a8 8 0 1116 0v40a8 8 0 01-8 8Z"/></g></symbol><style>.if{fill:none;stroke:currentColor;stroke-linecap:round;stroke-linejoin:round;stroke-width:15px;}</style></defs><g id="thunderstorms-rain_cx"><use xlink:href="#thunderstorms-rain_a" width="359" height="231" transform="translate(76.5 140.5)"/><use xlink:href="#thunderstorms-rain_c" width="128" height="109" transform="translate(192 344)"/><use xlink:href="#thunderstorms-rain_b" width="96" height="176" transform="translate(208 293)"/></g></svg>