<svg xmlns="http://www.w3.org/2000/svg" xmlns:xlink="http://www.w3.org/1999/xlink" viewBox="0 0 64 64"><defs><linearGradient id="partly-cloudy-night-haze_b" x1="13.58" x2="24.15" y1="15.57" y2="33.87" gradientUnits="userSpaceOnUse"><stop offset="0" stop-color="#86c3db"/><stop offset=".45" stop-color="#86c3db"/><stop offset="1" stop-color="#5eafcf"/><animateTransform attributeName="gradientTransform" dur="10s" repeatCount="indefinite" type="rotate" values="10 19.22 24.293; -10 19.22 24.293; 10 19.22 24.293"/></linearGradient><linearGradient id="partly-cloudy-night-haze_c" x1="22.56" x2="39.2" y1="21.96" y2="50.8" gradientUnits="userSpaceOnUse"><stop offset="0" stop-color="#f3f7fe"/><stop offset=".45" stop-color="#f3f7fe"/><stop offset="1" stop-color="#deeafb"/></linearGradient><linearGradient id="partly-cloudy-night-haze_a" x1="17.94" x2="26.94" y1="55.73" y2="71.32" gradientUnits="userSpaceOnUse"><stop offset="0" stop-color="#d4d7dd"/><stop offset=".45" stop-color="#d4d7dd"/><stop offset="1" stop-color="#bec1c6"/></linearGradient><linearGradient id="partly-cloudy-night-haze_d" x1="28.81" x2="37.81" y1="49.45" y2="65.04" xlink:href="#partly-cloudy-night-haze_a"/><linearGradient id="partly-cloudy-night-haze_e" x1="37.06" x2="46.06" y1="44.68" y2="60.27" xlink:href="#partly-cloudy-night-haze_a"/><linearGradient id="partly-cloudy-night-haze_f" x1="17.94" x2="26.94" y1="49.73" y2="65.32" xlink:href="#partly-cloudy-night-haze_a"/><linearGradient id="partly-cloudy-night-haze_g" x1="28.81" x2="37.81" y1="43.45" y2="59.04" xlink:href="#partly-cloudy-night-haze_a"/><linearGradient id="partly-cloudy-night-haze_h" x1="37.06" x2="46.06" y1="38.68" y2="54.27" xlink:href="#partly-cloudy-night-haze_a"/></defs><path fill="url(#partly-cloudy-night-haze_b)" stroke="#72b9d5" stroke-linecap="round" stroke-linejoin="round" stroke-width=".5" d="M29.33 26.68a10.61 10.61 0 01-10.68-10.54A10.5 10.5 0 0119 13.5a10.54 10.54 0 1011.5 13.11 11.48 11.48 0 01-1.17.07z"><animateTransform attributeName="transform" dur="10s" repeatCount="indefinite" type="rotate" values="-10 19.22 24.293; 10 19.22 24.293; -10 19.22 24.293"/></path><path fill="url(#partly-cloudy-night-haze_c)" stroke="#e6effc" stroke-miterlimit="10" stroke-width=".5" d="M46.5 31.5h-.32a10.49 10.49 0 00-19.11-8 7 7 0 00-10.57 6 7.21 7.21 0 00.1 1.14A7.5 7.5 0 0018 45.5a4.19 4.19 0 00.5 0v0h28a7 7 0 000-14z"/><g><path fill="none" stroke="url(#partly-cloudy-night-haze_a)" stroke-linecap="round" stroke-miterlimit="10" stroke-width="3" d="M17 58h4.5"/><path fill="none" stroke="url(#partly-cloudy-night-haze_d)" stroke-dasharray="7 7" stroke-linecap="round" stroke-miterlimit="10" stroke-width="3" d="M28.5 58H39"/><path fill="none" stroke="url(#partly-cloudy-night-haze_e)" stroke-linecap="round" stroke-miterlimit="10" stroke-width="3" d="M42.5 58H47"/><animateTransform attributeName="transform" begin="0s" dur="5s" repeatCount="indefinite" type="translate" values="-3 0; 3 0; -3 0"/></g><g><path fill="none" stroke="url(#partly-cloudy-night-haze_f)" stroke-linecap="round" stroke-miterlimit="10" stroke-width="3" d="M17 52h4.5"/><path fill="none" stroke="url(#partly-cloudy-night-haze_g)" stroke-dasharray="7 7" stroke-linecap="round" stroke-miterlimit="10" stroke-width="3" d="M28.5 52H39"/><path fill="none" stroke="url(#partly-cloudy-night-haze_h)" stroke-linecap="round" stroke-miterlimit="10" stroke-width="3" d="M42.5 52H47"/><animateTransform attributeName="transform" begin="-4s" dur="5s" repeatCount="indefinite" type="translate" values="-3 0; 3 0; -3 0"/></g></svg>