<svg xmlns="http://www.w3.org/2000/svg" xmlns:xlink="http://www.w3.org/1999/xlink" viewBox="0 0 512 512"><defs><linearGradient id="dust_a" x1="99.5" x2="232.6" y1="30.7" y2="261.4" gradientUnits="userSpaceOnUse"><stop offset="0" stop-color="#f3f7fe"/><stop offset=".5" stop-color="#f3f7fe"/><stop offset="1" stop-color="#deeafb"/></linearGradient><linearGradient id="dust_b" x1="6" x2="18" y1="169.6" y2="190.4" gradientUnits="userSpaceOnUse"><stop offset="0" stop-color="#fde68a"/><stop offset=".5" stop-color="#fde68a"/><stop offset="1" stop-color="#fde171"/></linearGradient><linearGradient xlink:href="#dust_b" id="dust_c" x1="66" x2="78" y1="169.6" y2="190.4"/><linearGradient xlink:href="#dust_b" id="dust_d" x1="38" x2="50" y1="137.6" y2="158.4"/><linearGradient xlink:href="#dust_b" id="dust_e" x1="98" x2="110" y1="137.6" y2="158.4"/><linearGradient xlink:href="#dust_b" id="dust_f" x1="70" x2="82" y1="101.6" y2="122.4"/><linearGradient xlink:href="#dust_b" id="dust_g" x1="130" x2="142" y1="101.6" y2="122.4"/><linearGradient xlink:href="#dust_b" id="dust_h" x1="102" x2="114" y1="69.6" y2="90.4"/><linearGradient xlink:href="#dust_b" id="dust_i" x1="162" x2="174" y1="69.6" y2="90.4"/><linearGradient xlink:href="#dust_b" id="dust_j" x1="134" x2="146" y1="33.6" y2="54.4"/><linearGradient xlink:href="#dust_b" id="dust_k" x1="194" x2="206" y1="33.6" y2="54.4"/><linearGradient xlink:href="#dust_b" id="dust_l" x1="166" x2="178" y1="1.6" y2="22.4"/><linearGradient xlink:href="#dust_b" id="dust_m" x1="226" x2="238" y1="1.6" y2="22.4"/><symbol id="dust_o" viewBox="0 0 350 222"><path fill="url(#dust_a)" stroke="#e6effc" stroke-miterlimit="10" stroke-width="6" d="m291 107-2.5.1A83.9 83.9 0 00135.6 43 56 56 0 0051 91a56.6 56.6 0 00.8 9A60 60 0 0063 219l4-.2v.2h224a56 56 0 000-112Z"/></symbol><symbol id="dust_p" viewBox="0 0 244 192"><circle cx="12" cy="180" r="12" fill="url(#dust_b)"/><circle cx="72" cy="180" r="12" fill="url(#dust_c)"/><circle cx="44" cy="148" r="12" fill="url(#dust_d)"/><circle cx="104" cy="148" r="12" fill="url(#dust_e)"/><circle cx="76" cy="112" r="12" fill="url(#dust_f)"/><circle cx="136" cy="112" r="12" fill="url(#dust_g)"/><circle cx="108" cy="80" r="12" fill="url(#dust_h)"/><circle cx="168" cy="80" r="12" fill="url(#dust_i)"/><circle cx="140" cy="44" r="12" fill="url(#dust_j)"/><circle cx="200" cy="44" r="12" fill="url(#dust_k)"/><circle cx="172" cy="12" r="12" fill="url(#dust_l)"/><circle cx="232" cy="12" r="12" fill="url(#dust_m)"/></symbol><clipPath id="dust_n"><path fill="none" d="M0 0h512L0 512V0z"/></clipPath></defs><g clip-path="url(#dust_n)"><use xlink:href="#dust_o" width="350" height="222" transform="translate(85 145)"/></g><use xlink:href="#dust_p" width="244" height="192" transform="translate(192 182)"/></svg>