<svg xmlns="http://www.w3.org/2000/svg" xmlns:xlink="http://www.w3.org/1999/xlink" viewBox="0 0 512 512"><defs><linearGradient id="fog-night_a" x1="96" x2="168" y1="-2.4" y2="122.3" gradientUnits="userSpaceOnUse"><stop offset="0" stop-color="#d4d7dd"/><stop offset=".5" stop-color="#d4d7dd"/><stop offset="1" stop-color="#bec1c6"/></linearGradient><linearGradient xlink:href="#fog-night_a" id="fog-night_b" x2="168" y1="-50.4" y2="74.3"/><linearGradient id="fog-night_c" x1="54.3" x2="187.2" y1="29" y2="259.1" gradientUnits="userSpaceOnUse"><stop offset="0" stop-color="#86c3db"/><stop offset=".5" stop-color="#86c3db"/><stop offset="1" stop-color="#5eafcf"/></linearGradient><symbol id="fog-night_e" viewBox="0 0 270 270"><path fill="url(#fog-night_c)" stroke="#72b9d5" stroke-linecap="round" stroke-linejoin="round" stroke-width="6" d="M252.3 168.6A133.4 133.4 0 01118 36.2 130.5 130.5 0 01122.5 3 133 133 0 003 134.6C3 207.7 63 267 137.2 267c62.5 0 114.8-42.2 129.8-99.2a135.6 135.6 0 01-14.8.8Z"/></symbol><symbol id="fog-night_f" viewBox="0 0 264 72"><path fill="none" stroke="url(#fog-night_a)" stroke-linecap="round" stroke-miterlimit="10" stroke-width="24" d="M12 60h240"/><path fill="none" stroke="url(#fog-night_b)" stroke-linecap="round" stroke-miterlimit="10" stroke-width="24" d="M12 12h240"/></symbol><clipPath id="fog-night_d"><path fill="none" d="M0 0h512v306H0z"/></clipPath></defs><g clip-path="url(#fog-night_d)"><use xlink:href="#fog-night_e" width="270" height="270" transform="translate(121 121)"/></g><use xlink:href="#fog-night_f" width="264" height="72" transform="translate(124 336)"/></svg>