<svg xmlns="http://www.w3.org/2000/svg" xmlns:xlink="http://www.w3.org/1999/xlink" viewBox="0 0 512 512"><defs><linearGradient id="haze-night_a" x1="17.3" x2="89.3" y1="43.1" y2="167.8" gradientUnits="userSpaceOnUse"><stop offset="0" stop-color="#d4d7dd"/><stop offset=".5" stop-color="#d4d7dd"/><stop offset="1" stop-color="#bec1c6"/></linearGradient><linearGradient xlink:href="#haze-night_a" id="haze-night_b" x1="107.3" x2="179.3" y1="-8.8" y2="115.9"/><linearGradient xlink:href="#haze-night_a" id="haze-night_c" x1="174.8" x2="246.8" y1="-47.8" y2="76.9"/><linearGradient xlink:href="#haze-night_a" id="haze-night_d" x2="89.3" y1="-4.9" y2="119.8"/><linearGradient xlink:href="#haze-night_a" id="haze-night_e" x1="107.3" x2="179.3" y1="-56.9" y2="67.9"/><linearGradient xlink:href="#haze-night_a" id="haze-night_f" x1="174.8" x2="246.8" y1="-95.8" y2="28.9"/><linearGradient id="haze-night_g" x1="54.3" x2="187.2" y1="29" y2="259.1" gradientUnits="userSpaceOnUse"><stop offset="0" stop-color="#86c3db"/><stop offset=".5" stop-color="#86c3db"/><stop offset="1" stop-color="#5eafcf"/></linearGradient><symbol id="haze-night_i" viewBox="0 0 270 270"><path fill="url(#haze-night_g)" stroke="#72b9d5" stroke-linecap="round" stroke-linejoin="round" stroke-width="6" d="M252.3 168.6A133.4 133.4 0 01118 36.2 130.5 130.5 0 01122.5 3 133 133 0 003 134.6C3 207.7 63 267 137.2 267c62.5 0 114.8-42.2 129.8-99.2a135.6 135.6 0 01-14.8.8Z"/></symbol><symbol id="haze-night_j" viewBox="0 0 264 72"><path fill="none" stroke="url(#haze-night_a)" stroke-linecap="round" stroke-miterlimit="10" stroke-width="24" d="M12 60h30"/><path fill="none" stroke="url(#haze-night_b)" stroke-dasharray="60 60" stroke-linecap="round" stroke-miterlimit="10" stroke-width="24" d="M102 60h90"/><path fill="none" stroke="url(#haze-night_c)" stroke-linecap="round" stroke-miterlimit="10" stroke-width="24" d="M222 60h30"/><path fill="none" stroke="url(#haze-night_d)" stroke-linecap="round" stroke-miterlimit="10" stroke-width="24" d="M12 12h30"/><path fill="none" stroke="url(#haze-night_e)" stroke-dasharray="60 60" stroke-linecap="round" stroke-miterlimit="10" stroke-width="24" d="M102 12h90"/><path fill="none" stroke="url(#haze-night_f)" stroke-linecap="round" stroke-miterlimit="10" stroke-width="24" d="M222 12h30"/></symbol><clipPath id="haze-night_h"><path fill="none" d="M0 0h512v306H0z"/></clipPath></defs><g clip-path="url(#haze-night_h)"><use xlink:href="#haze-night_i" width="270" height="270" transform="translate(121 121)"/></g><use xlink:href="#haze-night_j" width="264" height="72" transform="translate(124 336)"/></svg>